<?xml version="1.0" encoding="UTF-8"?>
<svg xmlns="http://www.w3.org/2000/svg" xmlns:xlink="http://www.w3.org/1999/xlink" width="30em" height="10em" viewBox="0 0 778.78 226.11" version="1.1">
<defs>
<clipPath id="clip1">
  <path d="M 599 0 L 778.78125 0 L 778.78125 180 L 599 180 Z M 599 0 "/>
</clipPath>
<clipPath id="clip2">
  <path d="M 323 163 L 376 163 L 376 226.109375 L 323 226.109375 Z M 323 163 "/>
</clipPath>
<clipPath id="clip3">
  <path d="M 386 163 L 444 163 L 444 226.109375 L 386 226.109375 Z M 386 163 "/>
</clipPath>
<clipPath id="clip4">
  <path d="M 449 163 L 463 163 L 463 226.109375 L 449 226.109375 Z M 449 163 "/>
</clipPath>
<clipPath id="clip5">
  <path d="M 467 163 L 527 163 L 527 226.109375 L 467 226.109375 Z M 467 163 "/>
</clipPath>
<clipPath id="clip6">
  <path d="M 532 163 L 581 163 L 581 226.109375 L 532 226.109375 Z M 532 163 "/>
</clipPath>
</defs>
<g id="surface1">
<path style=" stroke:none;fill-rule:nonzero;fill:rgb(96.499634%,54.499817%,19.999695%);fill-opacity:1;" d="M 88.765625 115.640625 C 95.460938 115.640625 100.890625 121.089844 100.890625 127.769531 C 100.890625 134.453125 95.460938 139.867188 88.765625 139.867188 C 82.066406 139.867188 76.667969 134.453125 76.667969 127.769531 C 76.667969 121.089844 82.066406 115.640625 88.765625 115.640625 "/>
<path style=" stroke:none;fill-rule:evenodd;fill:rgb(1.199341%,45.498657%,73.699951%);fill-opacity:1;" d="M 22.417969 68.691406 L 22.417969 85.304688 L 59.0625 85.304688 L 59.0625 101.921875 L 22.417969 101.921875 L 22.417969 120.339844 L 64.734375 120.339844 L 64.734375 138.792969 L 0 138.792969 L 0 50.238281 L 64.101563 50.238281 L 64.101563 68.691406 L 22.417969 68.691406 "/>
<path style=" stroke:none;fill-rule:evenodd;fill:rgb(1.199341%,45.498657%,73.699951%);fill-opacity:1;" d="M 136.039063 50.238281 L 136.039063 120.339844 L 170.636719 120.339844 L 170.636719 138.808594 L 113.574219 138.808594 L 113.574219 50.238281 L 136.039063 50.238281 "/>
<path style=" stroke:none;fill-rule:evenodd;fill:rgb(1.199341%,45.498657%,73.699951%);fill-opacity:1;" d="M 247.449219 116.664063 L 247.449219 117.722656 C 247.449219 133.816406 237.027344 139.574219 213.992188 139.574219 C 185.542969 139.574219 176.910156 132.777344 176.910156 103.253906 C 176.910156 75.257813 186.714844 67.714844 212.316406 67.714844 C 237.84375 67.714844 247.449219 74.65625 247.449219 101.011719 L 247.449219 107.1875 L 196.777344 107.1875 L 196.777344 110.050781 C 196.777344 122.097656 201.703125 125.234375 212.9375 125.234375 C 222.769531 125.234375 227.503906 123.574219 227.890625 116.664063 Z M 196.777344 95.597656 L 227.890625 95.597656 L 227.890625 93.191406 C 227.746094 84.007813 223.796875 82.347656 212.351563 82.347656 C 201.359375 82.347656 196.777344 84.054688 196.777344 95.597656 "/>
<path style=" stroke:none;fill-rule:evenodd;fill:rgb(1.199341%,45.498657%,73.699951%);fill-opacity:1;" d="M 363.980469 138.808594 L 343.984375 138.808594 L 343.984375 50.238281 L 363.980469 50.238281 L 363.980469 138.808594 "/>
<path style=" stroke:none;fill-rule:evenodd;fill:rgb(1.199341%,45.498657%,73.699951%);fill-opacity:1;" d="M 296.464844 124.175781 C 306.382813 124.175781 310.511719 122.015625 310.707031 113.203125 L 330.199219 113.203125 C 330.117188 133.800781 320.820313 139.574219 295.246094 139.574219 C 269.753906 139.574219 260.699219 131.851563 260.699219 103.628906 C 260.699219 75.421875 269.753906 67.714844 295.246094 67.714844 C 320.703125 67.714844 330.066406 73.4375 330.199219 93.859375 L 310.707031 93.859375 C 310.460938 85.226563 306.285156 83.144531 296.464844 83.144531 C 284.550781 83.144531 281.023438 85.339844 281.023438 103.628906 C 281.023438 121.964844 284.550781 124.175781 296.464844 124.175781 "/>
<path style=" stroke:none;fill-rule:evenodd;fill:rgb(1.199341%,45.498657%,73.699951%);fill-opacity:1;" d="M 449.476563 116.664063 L 449.476563 117.722656 C 449.476563 133.816406 439.039063 139.574219 416.003906 139.574219 C 387.554688 139.574219 378.9375 132.777344 378.9375 103.253906 C 378.9375 75.257813 388.742188 67.714844 414.34375 67.714844 C 439.855469 67.714844 449.476563 74.65625 449.476563 101.011719 L 449.476563 107.1875 L 398.804688 107.1875 L 398.804688 110.050781 C 398.804688 122.097656 403.730469 125.234375 414.964844 125.234375 C 424.765625 125.234375 429.515625 123.574219 429.902344 116.664063 Z M 398.804688 95.597656 L 429.902344 95.597656 L 429.902344 93.191406 C 429.773438 84.007813 425.789063 82.347656 414.34375 82.347656 C 403.386719 82.347656 398.804688 84.054688 398.804688 95.597656 "/>
<path style=" stroke:none;fill-rule:evenodd;fill:rgb(1.199341%,45.498657%,73.699951%);fill-opacity:1;" d="M 546.9375 124.175781 C 556.855469 124.175781 560.96875 122.015625 561.195313 113.203125 L 580.640625 113.203125 C 580.605469 133.800781 571.257813 139.574219 545.734375 139.574219 C 520.246094 139.574219 511.171875 131.851563 511.171875 103.628906 C 511.171875 75.421875 520.246094 67.714844 545.734375 67.714844 C 571.195313 67.714844 580.527344 73.4375 580.640625 93.859375 L 561.195313 93.859375 C 560.9375 85.226563 556.773438 83.144531 546.9375 83.144531 C 535.007813 83.144531 531.496094 85.339844 531.496094 103.628906 C 531.496094 121.964844 535.007813 124.175781 546.9375 124.175781 "/>
<path style=" stroke:none;fill-rule:nonzero;fill:rgb(1.199341%,45.498657%,73.699951%);fill-opacity:1;" d="M 506.167969 85.90625 C 506.167969 85.90625 501.222656 85.859375 500.671875 85.859375 C 489.664063 85.859375 484.363281 92.28125 484.363281 106.113281 L 484.363281 138.792969 L 464.351563 138.792969 L 464.351563 68.984375 L 484.363281 68.984375 L 484.363281 79.371094 C 489.191406 71.503906 495.402344 67.816406 503.757813 67.714844 L 506.167969 67.714844 L 506.167969 85.90625 "/>
<path style=" stroke:none;fill-rule:nonzero;fill:rgb(1.199341%,45.498657%,73.699951%);fill-opacity:1;" d="M 647.765625 62.320313 L 647.765625 50.238281 L 685.613281 50.238281 L 685.613281 62.351563 C 681.386719 63.472656 677.972656 67.097656 677.972656 72.316406 L 677.972656 122.761719 L 692.359375 122.761719 C 699.640625 122.761719 705.867188 118.308594 708.46875 111.984375 L 717.800781 111.953125 L 717.800781 138.792969 L 647.765625 138.792969 L 647.765625 123.171875 C 652.171875 122.097656 655.453125 117.96875 655.453125 113.367188 L 655.453125 72.625 C 655.453125 66.886719 651.894531 63.390625 647.765625 62.320313 "/>
<g clip-path="url(#clip1)" clip-rule="nonzero">
<path style=" stroke:none;fill-rule:evenodd;fill:rgb(1.199341%,45.498657%,73.699951%);fill-opacity:1;" d="M 599.726563 89.53125 C 599.726563 40.113281 639.816406 0.00390625 689.253906 0.00390625 C 738.691406 0.00390625 778.78125 40.113281 778.78125 89.53125 C 778.78125 138.988281 738.691406 179.078125 689.253906 179.078125 C 639.816406 179.078125 599.726563 138.988281 599.726563 89.53125 M 618.289063 89.53125 C 618.289063 128.714844 650.058594 160.480469 689.253906 160.480469 C 728.433594 160.480469 760.199219 128.714844 760.199219 89.53125 C 760.199219 50.351563 728.433594 18.585938 689.253906 18.585938 C 650.058594 18.585938 618.289063 50.351563 618.289063 89.53125 "/>
</g>
<path style=" stroke:none;fill-rule:evenodd;fill:rgb(96.499634%,54.499817%,19.999695%);fill-opacity:1;" d="M 668.851563 42.875 C 677.011719 36.957031 687.042969 33.464844 697.886719 33.464844 C 725.148438 33.464844 747.226563 55.523438 747.226563 82.785156 C 747.226563 100.003906 738.414063 115.136719 725.070313 123.984375 L 725.070313 104.621094 L 703.722656 104.621094 C 703.722656 104.621094 701.429688 115.464844 692.359375 115.464844 L 685.273438 115.464844 L 685.273438 74.789063 C 685.273438 70.578125 688.699219 67.246094 692.910156 67.035156 L 692.910156 42.875 L 668.851563 42.875 "/>
<g clip-path="url(#clip2)" clip-rule="nonzero">
<path style=" stroke:none;fill-rule:nonzero;fill:rgb(96.499634%,54.499817%,19.999695%);fill-opacity:1;" d="M 335.855469 173.90625 L 335.855469 215.527344 L 345.351563 215.527344 C 348.878906 215.527344 351.445313 215.316406 352.992188 214.925781 C 355.070313 214.421875 356.777344 213.527344 358.144531 212.304688 C 359.476563 211.070313 360.597656 209.039063 361.460938 206.242188 C 362.320313 203.429688 362.746094 199.59375 362.746094 194.75 C 362.746094 189.871094 362.320313 186.164063 361.460938 183.566406 C 360.597656 180.964844 359.398438 178.945313 357.867188 177.46875 C 356.324219 176.023438 354.355469 175.046875 351.96875 174.523438 C 350.210938 174.117188 346.75 173.90625 341.578125 173.90625 Z M 323.175781 163.273438 L 346.375 163.273438 C 351.609375 163.273438 355.59375 163.699219 358.339844 164.496094 C 362.03125 165.582031 365.183594 167.5 367.800781 170.265625 C 370.417969 173.046875 372.417969 176.429688 373.785156 180.445313 C 375.164063 184.476563 375.863281 189.414063 375.863281 195.304688 C 375.863281 200.472656 375.183594 204.941406 373.914063 208.648438 C 372.355469 213.234375 370.109375 216.941406 367.199219 219.769531 C 364.988281 221.898438 362.03125 223.574219 358.292969 224.792969 C 355.511719 225.671875 351.738281 226.109375 347.054688 226.109375 L 323.175781 226.109375 L 323.175781 163.273438 "/>
</g>
<g clip-path="url(#clip3)" clip-rule="nonzero">
<path style=" stroke:none;fill-rule:nonzero;fill:rgb(96.499634%,54.499817%,19.999695%);fill-opacity:1;" d="M 399.339844 189.855469 L 408.722656 189.855469 C 414.785156 189.855469 418.605469 189.597656 420.117188 189.074219 C 421.628906 188.570313 422.816406 187.695313 423.695313 186.410156 C 424.523438 185.175781 424.960938 183.582031 424.960938 181.710938 C 424.960938 179.613281 424.40625 177.90625 423.269531 176.605469 C 422.164063 175.304688 420.554688 174.460938 418.492188 174.136719 C 417.464844 173.988281 414.363281 173.90625 409.222656 173.90625 L 399.339844 173.90625 Z M 386.644531 226.109375 L 386.644531 163.273438 L 413.355469 163.273438 C 420.050781 163.273438 424.945313 163.859375 427.96875 164.984375 C 431.027344 166.105469 433.464844 168.136719 435.285156 170.996094 C 437.121094 173.875 438.050781 177.191406 438.050781 180.882813 C 438.050781 185.597656 436.632813 189.496094 433.871094 192.554688 C 431.089844 195.660156 426.960938 197.59375 421.433594 198.390625 C 424.195313 199.984375 426.472656 201.722656 428.261719 203.65625 C 430.015625 205.578125 432.425781 208.976563 435.464844 213.851563 L 443.121094 226.109375 L 427.953125 226.109375 L 418.78125 212.4375 C 415.53125 207.558594 413.304688 204.46875 412.101563 203.21875 C 410.898438 201.917969 409.617188 201.074219 408.300781 200.585938 C 406.949219 200.132813 404.835938 199.871094 401.925781 199.871094 L 399.339844 199.871094 L 399.339844 226.109375 L 386.644531 226.109375 "/>
</g>
<g clip-path="url(#clip4)" clip-rule="nonzero">
<path style=" stroke:none;fill-rule:nonzero;fill:rgb(96.499634%,54.499817%,19.999695%);fill-opacity:1;" d="M 449.589844 163.273438 L 462.269531 163.273438 L 462.269531 226.109375 L 449.589844 226.109375 L 449.589844 163.273438 "/>
</g>
<g clip-path="url(#clip5)" clip-rule="nonzero">
<path style=" stroke:none;fill-rule:nonzero;fill:rgb(96.499634%,54.499817%,19.999695%);fill-opacity:1;" d="M 490.378906 226.109375 L 467.929688 163.273438 L 481.699219 163.273438 L 497.597656 209.789063 L 512.976563 163.273438 L 526.421875 163.273438 L 503.921875 226.109375 L 490.378906 226.109375 "/>
</g>
<g clip-path="url(#clip6)" clip-rule="nonzero">
<path style=" stroke:none;fill-rule:nonzero;fill:rgb(96.499634%,54.499817%,19.999695%);fill-opacity:1;" d="M 532.890625 226.109375 L 532.890625 163.273438 L 579.46875 163.273438 L 579.46875 173.90625 L 545.589844 173.90625 L 545.589844 187.824219 L 577.128906 187.824219 L 577.128906 198.425781 L 545.589844 198.425781 L 545.589844 215.527344 L 580.671875 215.527344 L 580.671875 226.109375 L 532.890625 226.109375 "/>
</g>
</g>
</svg>
