<svg id="ALPLA_Black_-_CMYK" data-name="ALPLA Black - CMYK" xmlns="http://www.w3.org/2000/svg" viewBox="0 0 283.46 53.01"><defs><style>.cls-1{fill:#004d90;fill-rule:evenodd;}</style></defs><title>Logo_ALPLA_RGB_Blue</title><path class="cls-1" d="M705.54,438.14l3.21,5.5h0c1.37,2.37,5.44,4,10,4,5.81,0,10.52-2.54,10.52-5.67a3.47,3.47,0,0,0-.66-2h0l-28.46-41.66h0c-1.53-2.23-5.47-3.72-9.87-3.72s-8.35,1.49-9.87,3.72h0l-23.79,34.84H642.3V400.27h0c0-3.13-4.71-5.67-10.52-5.67s-10.51,2.54-10.51,5.67h0v4.25c-4.84-5.89-14.67-9.92-26-9.92H576.74c-5.81,0-10.52,2.54-10.52,5.67h0v36.38c-1.94-2.09-5.45-3.49-9.47-3.49H542.27V400.27h0c0-3.13-4.71-5.67-10.52-5.67s-10.52,2.54-10.52,5.67h0v36.92l-26.55-38.87h0c-1.52-2.23-5.46-3.72-9.87-3.72s-8.35,1.49-9.87,3.72h0L446.48,440h0a3.45,3.45,0,0,0-.65,2c0,3.13,4.71,5.67,10.52,5.67,4.59,0,8.65-1.6,10-4h0l3.21-5.5H500l3.21,5.5h0c1.37,2.37,5.44,4,10,4,4,0,7.46-1.19,9.24-3,1.78,1.77,5.25,3,9.24,3h25c4.35,0,8.11-1.64,9.92-4,1.3,2.33,5.32,4,10.07,4,5.8,0,10.51-2.54,10.51-5.67h0V431h8c11.33,0,21.16-4,26-9.91v20.82h0c0,3.13,4.71,5.67,10.51,5.67h30.08c4.59,0,8.65-1.6,10-4h0l3.21-5.5h30.44ZM476.92,425.56h15.77L484.81,412h0l-7.89,13.53Zm118.35-17.07h-8v8.65h8c4.43,0,8-1.94,8-4.32s-3.6-4.33-8-4.33Zm87.16,17.07H698.2L690.32,412h0l-7.89,13.53Z" transform="translate(-445.83 -394.6)"/></svg>