<svg xmlns="http://www.w3.org/2000/svg" width="25em" height="12em" viewBox="0 0 220.339 83.157"><g transform="translate(-331 -24)"><g transform="translate(316.517 10.932)"><g transform="translate(14.483 13.068)"><rect width="2.941" height="18.422" transform="translate(51.431 19.633)" fill="#665850"/><path d="M78.812,26.615H76.668C75.533,18.39,67.969,15.2,60.659,15.2c-7.565,0-12.987,3.193-12.987,8.323,0,10.256,17.83,13.564,28.167,21.5,5.041,3.871,6.88,6.759,6.88,10.434,0,8.71-9.2,15.776-20.548,15.776-7.688,0-14.121-2.9-16.516-2.9a2.929,2.929,0,0,0-2.775,2.129H40.738v-15h2.143c.126,10.259,11.1,13.647,17.4,13.647,8.7,0,15.767-4.469,15.767-10.468,0-9.582-19.163-14.382-27.234-20.575-4.413-3.387-7.7-6.311-7.7-10.667,0-8.515,7.942-14.321,19.668-14.321,7.69,0,11.345,2.129,14.118,2.129,1.135,0,1.389-.194,1.891-1.547h2.018Z" transform="translate(-6.6 -13.068)" fill="#c9c507"/><path d="M68.854,50.1V71.18H67.129l-40.98-50.5h-.2V61.445c0,5.881,2.333,8.012,7.606,8.012V71.18H15.9V69.457c4.869,0,7.2-1.521,7.2-9.939V25.543c0-6.491-1.724-10.142-8.622-10.749V13.068H29.394L65.71,58.3h.2V50.1m0-17.377v-8.4c0-7.606-2.03-9.532-7.1-9.532V13.068H76.361v1.725c-5.681,0-7.506,2.331-7.506,9.126v8.805" transform="translate(-14.483 -13.068)" fill="#665850"/></g><g transform="translate(100.123 13.068)"><path d="M80.347,19.017h2.407v3.4h.075a6.684,6.684,0,0,1,6.3-3.972c5.539,0,7.22,2.9,7.22,7.6V38.73H93.946v-12.3c0-3.4-1.108-5.96-5-5.96-3.82,0-6.112,2.9-6.188,6.763v11.5H80.347Z" transform="translate(-80.347 -11.454)" fill="#665850"/><path d="M112.864,38.6h-2.216V35.044h-.075a7.338,7.338,0,0,1-6.8,4.127c-4.966,0-6.913-2.9-6.913-7.488v-12.8h2.407V31.721c.114,3.552,1.452,5.425,5.271,5.425,4.126,0,5.921-3.9,5.921-7.908V18.885h2.407Z" transform="translate(-75.39 -11.321)" fill="#665850"/><path d="M117.686,20.252H121.7v2.026h-4.011V35.571c0,1.568.229,2.485,1.949,2.6a18.9,18.9,0,0,0,2.062-.114v2.062c-.726,0-1.413.075-2.14.075-3.208,0-4.316-1.069-4.277-4.43V22.278h-3.439V20.252h3.439V14.331h2.405Z" transform="translate(-70.891 -12.689)" fill="#665850"/><path d="M122.829,18.949h2.216v4.624h.077a7.285,7.285,0,0,1,7.45-4.892v2.407a6.792,6.792,0,0,0-7.336,7.068V38.662h-2.407Z" transform="translate(-67.592 -11.385)" fill="#665850"/><path d="M132.847,13.068h2.407v3.858h-2.407Zm0,7.564h2.407V40.345h-2.407Z" transform="translate(-64.584 -13.068)" fill="#665850"/><path d="M143.279,20.252h4.011v2.026h-4.011V35.571c0,1.568.229,2.485,1.948,2.6a18.923,18.923,0,0,0,2.064-.114v2.062c-.727,0-1.413.075-2.14.075-3.208,0-4.317-1.069-4.278-4.43V22.278h-3.439V20.252h3.439V14.331h2.407Z" transform="translate(-63.207 -12.689)" fill="#665850"/><path d="M148.45,13.068h2.407v3.858H148.45Zm0,7.564h2.407V40.345H148.45Z" transform="translate(-59.899 -13.068)" fill="#665850"/><path d="M172.469,28.874c0,5.653-3.284,10.429-9.32,10.429s-9.321-4.776-9.321-10.429,3.284-10.429,9.321-10.429S172.469,23.22,172.469,28.874Zm-16.235,0c0,4.2,2.292,8.4,6.915,8.4s6.915-4.2,6.915-8.4-2.292-8.406-6.915-8.406S156.234,24.671,156.234,28.874Z" transform="translate(-58.285 -11.454)" fill="#665850"/><path d="M171.631,19.017h2.407v3.4h.077a6.682,6.682,0,0,1,6.3-3.972c5.539,0,7.22,2.9,7.22,7.6V38.73H185.23v-12.3c0-3.4-1.106-5.96-5-5.96-3.82,0-6.112,2.9-6.189,6.763v11.5h-2.407Z" transform="translate(-52.939 -11.454)" fill="#665850"/><path d="M94.167,57.929A11.315,11.315,0,0,0,95.35,53v-.165H93.2V53a7.444,7.444,0,0,1-.486,3.171l-4.231-5.1c2.035-1.3,3.974-2.806,3.974-5.4a4.758,4.758,0,0,0-9.483,0c0,1.8,1.09,3.183,2.144,4.518.108.138.216.274.321.411-3.353,1.841-4.985,3.868-4.985,6.193,0,3.621,2.52,5.96,6.422,5.96a7.892,7.892,0,0,0,6.083-3.033l2.123,2.6H97.8Zm-6.453-14.76a2.414,2.414,0,0,1,2.586,2.5c0,1.8-1.489,3.013-2.987,3.955l-.1-.117c-.882-1.074-2.091-2.546-2.091-3.838A2.415,2.415,0,0,1,87.714,43.169Zm-1.083,8.879L91.62,58.1a5.913,5.913,0,0,1-4.689,2.783,4.106,4.106,0,0,1-4.325-3.918C82.607,54.6,84.73,53.095,86.631,52.048Z" transform="translate(-80.315 -4.59)" fill="#665850"/><path d="M114.019,48.076c-.113-2.978-2.405-4.316-5.155-4.316-2.14,0-4.661.841-4.661,3.4,0,2.139,2.444,2.9,4.088,3.323l3.209.724c2.75.421,5.614,2.026,5.614,5.464,0,4.279-4.24,5.921-7.907,5.921-4.585,0-7.717-2.139-8.1-6.951h2.405c.191,3.247,2.6,4.927,5.807,4.927,2.253,0,5.386-.992,5.386-3.743,0-2.292-2.139-3.056-4.316-3.591l-3.095-.688c-3.134-.839-5.5-1.91-5.5-5.273,0-4.01,3.936-5.538,7.411-5.538,3.935,0,7.067,2.063,7.22,6.34Z" transform="translate(-74.113 -4.46)" fill="#665850"/><path d="M119.929,48.344c.229-4.622,3.476-6.608,7.984-6.608,3.477,0,7.258,1.069,7.258,6.34V58.543A1.283,1.283,0,0,0,136.585,60a2.268,2.268,0,0,0,.765-.152v2.024a6.63,6.63,0,0,1-1.567.153c-2.446,0-2.827-1.377-2.827-3.439h-.078c-1.68,2.56-3.4,4.011-7.181,4.011-3.629,0-6.609-1.8-6.609-5.768,0-5.539,5.387-5.73,10.583-6.341,1.987-.229,3.095-.5,3.095-2.675,0-3.247-2.33-4.049-5.157-4.049-2.98,0-5.2,1.376-5.272,4.583Zm12.836,2.9h-.077c-.306.575-1.376.765-2.025.879-4.088.726-9.168.688-9.168,4.546,0,2.407,2.139,3.9,4.394,3.9,3.667,0,6.913-2.33,6.876-6.188Z" transform="translate(-68.715 -4.46)" fill="#665850"/><path d="M138.952,42.308h2.408v3.4h.075a6.682,6.682,0,0,1,6.3-3.972c5.538,0,7.22,2.9,7.22,7.6V62.021h-2.408v-12.3c0-3.4-1.108-5.96-5-5.96-3.82,0-6.112,2.9-6.188,6.763v11.5h-2.408Z" transform="translate(-62.751 -4.46)" fill="#665850"/><path d="M162.866,43.543h4.011v2.026h-4.011V58.863c0,1.567.229,2.483,1.948,2.6a18.62,18.62,0,0,0,2.063-.114v2.062c-.727,0-1.415.077-2.139.077-3.21,0-4.318-1.07-4.279-4.433V45.569H157.02V43.543h3.439V37.622h2.407Z" transform="translate(-57.326 -5.696)" fill="#665850"/><path d="M172.736,54.561c.039,3.515,1.872,7.755,6.493,7.755,3.516,0,5.426-2.062,6.189-5.042h2.407c-1.031,4.469-3.629,7.067-8.6,7.067-6.263,0-8.9-4.814-8.9-10.429,0-5.194,2.637-10.428,8.9-10.428,6.343,0,8.864,5.538,8.673,11.078ZM185.5,52.536c-.113-3.629-2.369-7.029-6.266-7.029-3.935,0-6.111,3.439-6.493,7.029ZM178.619,41.3H176.67l4.011-5.387h2.979Z" transform="translate(-53.33 -6.207)" fill="#665850"/></g></g><g transform="translate(396.136 -89.833)"><path d="M21.689,184.937l6.236,9.6h.032v-9.6H29.45v11.839H27.726l-6.185-9.5h-.034v9.5H20.015V184.937Z" transform="translate(0 0.03)" fill="#665850"/><path d="M29.156,190.041a3.989,3.989,0,0,1,.8-1.427,3.753,3.753,0,0,1,1.309-.954,4.814,4.814,0,0,1,3.59,0,3.783,3.783,0,0,1,1.3.954,4.009,4.009,0,0,1,.8,1.427,5.71,5.71,0,0,1,.266,1.765,5.639,5.639,0,0,1-.266,1.758,4.024,4.024,0,0,1-.8,1.418,3.664,3.664,0,0,1-1.3.945,4.9,4.9,0,0,1-3.59,0,3.637,3.637,0,0,1-1.309-.945,4,4,0,0,1-.8-1.418,5.639,5.639,0,0,1-.266-1.758A5.71,5.71,0,0,1,29.156,190.041Zm1.434,3.15a2.9,2.9,0,0,0,.572,1.011,2.464,2.464,0,0,0,.855.622,2.6,2.6,0,0,0,2.072,0,2.464,2.464,0,0,0,.855-.622,2.9,2.9,0,0,0,.572-1.011,4.744,4.744,0,0,0,0-2.769,3,3,0,0,0-.572-1.02,2.473,2.473,0,0,0-.855-.631,2.6,2.6,0,0,0-2.072,0,2.473,2.473,0,0,0-.855.631,3,3,0,0,0-.572,1.02,4.744,4.744,0,0,0,0,2.769Z" transform="translate(2.583 0.722)" fill="#665850"/><path d="M42.522,196.04V194.68H42.49a2.891,2.891,0,0,1-1.145,1.17,3.438,3.438,0,0,1-1.642.373A3.856,3.856,0,0,1,38.294,196a2.245,2.245,0,0,1-.913-.638,2.4,2.4,0,0,1-.489-.988,5.279,5.279,0,0,1-.141-1.268v-5.638h1.41v5.8A1.6,1.6,0,0,0,39.9,195a2.88,2.88,0,0,0,1.118-.2,2.119,2.119,0,0,0,.789-.565,2.433,2.433,0,0,0,.473-.853,3.483,3.483,0,0,0,.158-1.069v-4.843h1.41v8.573Z" transform="translate(4.871 0.767)" fill="#665850"/><path d="M45.309,187.512v1.807h.034a3.815,3.815,0,0,1,1.26-1.543,3.166,3.166,0,0,1,1.89-.463v1.492a3.983,3.983,0,0,0-1.442.231,2.278,2.278,0,0,0-.962.68,2.808,2.808,0,0,0-.531,1.087,5.826,5.826,0,0,0-.167,1.467v3.814H43.983v-8.573Z" transform="translate(6.976 0.721)" fill="#665850"/><path d="M49.715,187.512v1.807h.034a3.805,3.805,0,0,1,1.26-1.543,3.166,3.166,0,0,1,1.89-.463v1.492a4,4,0,0,0-1.443.231,2.274,2.274,0,0,0-.961.68,2.79,2.79,0,0,0-.531,1.087,5.826,5.826,0,0,0-.167,1.467v3.814h-1.41v-8.573Z" transform="translate(8.258 0.721)" fill="#665850"/><path d="M52.9,186.661v-1.724h1.41v1.724Zm1.41,1.543v8.573H52.9V188.2Z" transform="translate(9.57 0.03)" fill="#665850"/><path d="M57.1,187.512v1.807h.032a3.826,3.826,0,0,1,1.26-1.543,3.172,3.172,0,0,1,1.891-.463v1.492a3.991,3.991,0,0,0-1.443.231,2.274,2.274,0,0,0-.961.68,2.809,2.809,0,0,0-.532,1.087,5.829,5.829,0,0,0-.165,1.467v3.814h-1.41v-8.573Z" transform="translate(10.408 0.721)" fill="#665850"/><path d="M65.245,187.512v1.359h.032a2.967,2.967,0,0,1,2.786-1.558,3.718,3.718,0,0,1,1.41.231,2.312,2.312,0,0,1,.911.647,2.386,2.386,0,0,1,.489.988,5.284,5.284,0,0,1,.142,1.268v5.638h-1.41v-5.8a1.7,1.7,0,0,0-.465-1.259,1.725,1.725,0,0,0-1.277-.466,2.866,2.866,0,0,0-1.119.2,2.1,2.1,0,0,0-.788.564,2.415,2.415,0,0,0-.473.853,3.489,3.489,0,0,0-.158,1.069v4.843h-1.41v-8.573Z" transform="translate(12.778 0.722)" fill="#665850"/><path d="M71.093,190.041a4.009,4.009,0,0,1,.8-1.427,3.765,3.765,0,0,1,1.309-.954,4.817,4.817,0,0,1,3.592,0,3.783,3.783,0,0,1,1.3.954,4.009,4.009,0,0,1,.8,1.427,5.749,5.749,0,0,1,.265,1.765,5.677,5.677,0,0,1-.265,1.758,4.024,4.024,0,0,1-.8,1.418,3.664,3.664,0,0,1-1.3.945,4.9,4.9,0,0,1-3.592,0,3.648,3.648,0,0,1-1.309-.945,4.024,4.024,0,0,1-.8-1.418,5.677,5.677,0,0,1-.265-1.758A5.749,5.749,0,0,1,71.093,190.041Zm1.436,3.15A2.9,2.9,0,0,0,73.1,194.2a2.464,2.464,0,0,0,.855.622,2.6,2.6,0,0,0,2.073,0,2.459,2.459,0,0,0,.853-.622,2.9,2.9,0,0,0,.572-1.011,4.716,4.716,0,0,0,0-2.769,3,3,0,0,0-.572-1.02,2.468,2.468,0,0,0-.853-.631,2.6,2.6,0,0,0-2.073,0,2.473,2.473,0,0,0-.855.631,3,3,0,0,0-.571,1.02,4.716,4.716,0,0,0,0,2.769Z" transform="translate(14.789 0.722)" fill="#665850"/><path d="M82.56,188.046v1.243H80.851v5.323a1.491,1.491,0,0,0,.043.4.394.394,0,0,0,.158.232.683.683,0,0,0,.323.108,4.625,4.625,0,0,0,.54.026h.647v1.242H81.482a5.109,5.109,0,0,1-.937-.074,1.387,1.387,0,0,1-.63-.274,1.172,1.172,0,0,1-.358-.564,3.259,3.259,0,0,1-.115-.962V189.29h-1.46v-1.243h1.46v-2.57h1.409v2.57Z" transform="translate(16.871 0.187)" fill="#665850"/><path d="M84.152,187.512v1.807h.032a3.817,3.817,0,0,1,1.261-1.543,3.165,3.165,0,0,1,1.89-.463v1.492a3.986,3.986,0,0,0-1.443.231,2.286,2.286,0,0,0-.962.68A2.808,2.808,0,0,0,84.4,190.8a5.826,5.826,0,0,0-.167,1.467v3.814h-1.41v-8.573Z" transform="translate(18.281 0.721)" fill="#665850"/><path d="M93.212,195.538a3.9,3.9,0,0,1-2.422.729,4.4,4.4,0,0,1-1.782-.332,3.514,3.514,0,0,1-1.27-.93,3.932,3.932,0,0,1-.769-1.425,6.851,6.851,0,0,1-.29-1.807,5.16,5.16,0,0,1,.3-1.791,4.28,4.28,0,0,1,.839-1.41,3.8,3.8,0,0,1,1.276-.93,3.907,3.907,0,0,1,1.618-.331,3.52,3.52,0,0,1,1.9.473,3.759,3.759,0,0,1,1.21,1.2,4.744,4.744,0,0,1,.631,1.593,6.888,6.888,0,0,1,.141,1.641H88.169a3.388,3.388,0,0,0,.134,1.07,2.389,2.389,0,0,0,.48.9,2.352,2.352,0,0,0,.846.621,2.916,2.916,0,0,0,1.211.232,2.448,2.448,0,0,0,1.467-.413,2,2,0,0,0,.754-1.261h1.393A3.427,3.427,0,0,1,93.212,195.538Zm-.341-5.506a2.381,2.381,0,0,0-1.277-1.285,2.4,2.4,0,0,0-.97-.192,2.451,2.451,0,0,0-.988.192,2.26,2.26,0,0,0-.754.522,2.513,2.513,0,0,0-.5.772,2.967,2.967,0,0,0-.216.936H93.1A2.934,2.934,0,0,0,92.871,190.032Z" transform="translate(19.402 0.722)" fill="#665850"/><path d="M97.1,189.477v-1.243h1.442v-1.277a2.009,2.009,0,0,1,.606-1.584,2.576,2.576,0,0,1,1.766-.54,3.66,3.66,0,0,1,.457.034,2.325,2.325,0,0,1,.454.1v1.227a1.764,1.764,0,0,0-.4-.092,3.769,3.769,0,0,0-.4-.025,1.368,1.368,0,0,0-.8.2.878.878,0,0,0-.283.763v1.194H101.6v1.243H99.947v7.329h-1.41v-7.329Z" transform="translate(22.434 0)" fill="#665850"/><path d="M107.464,196.04V194.68h-.032a2.883,2.883,0,0,1-1.145,1.17,3.433,3.433,0,0,1-1.641.373,3.859,3.859,0,0,1-1.41-.225,2.24,2.24,0,0,1-.911-.638,2.371,2.371,0,0,1-.489-.988,5.28,5.28,0,0,1-.141-1.268v-5.638H103.1v5.8A1.6,1.6,0,0,0,104.844,195a2.892,2.892,0,0,0,1.119-.2,2.13,2.13,0,0,0,.789-.565,2.41,2.41,0,0,0,.471-.853,3.445,3.445,0,0,0,.158-1.069v-4.843h1.41v8.573Z" transform="translate(23.773 0.767)" fill="#665850"/><path d="M112.835,188.046v1.243h-1.708v5.323a1.5,1.5,0,0,0,.041.4.394.394,0,0,0,.158.232.693.693,0,0,0,.323.108,4.625,4.625,0,0,0,.54.026h.647v1.242h-1.078a5.129,5.129,0,0,1-.937-.074,1.387,1.387,0,0,1-.63-.274,1.161,1.161,0,0,1-.356-.564,3.212,3.212,0,0,1-.116-.962V189.29h-1.46v-1.243h1.46v-2.57h1.41v2.57Z" transform="translate(25.683 0.187)" fill="#665850"/><path d="M118.909,196.04V194.68h-.034a2.88,2.88,0,0,1-1.144,1.17,3.442,3.442,0,0,1-1.642.373,3.864,3.864,0,0,1-1.41-.225,2.24,2.24,0,0,1-.911-.638,2.4,2.4,0,0,1-.489-.988,5.279,5.279,0,0,1-.141-1.268v-5.638h1.41v5.8a1.6,1.6,0,0,0,1.74,1.725,2.9,2.9,0,0,0,1.121-.2,2.115,2.115,0,0,0,.788-.565,2.411,2.411,0,0,0,.471-.853,3.445,3.445,0,0,0,.158-1.069v-4.843h1.41v8.573Z" transform="translate(27.104 0.767)" fill="#665850"/><path d="M121.7,187.512v1.807h.032a3.818,3.818,0,0,1,1.261-1.543,3.163,3.163,0,0,1,1.89-.463v1.492a3.986,3.986,0,0,0-1.443.231,2.286,2.286,0,0,0-.962.68,2.808,2.808,0,0,0-.531,1.087,5.825,5.825,0,0,0-.167,1.467v3.814h-1.41v-8.573Z" transform="translate(29.208 0.721)" fill="#665850"/></g></g></svg>